Coordinates
version=1
nRows=9
nColumns=42
inDegrees=yes

Units are S.I. units (second, meters, Newtons, ...)
If the header above contains a line with 'inDegrees', this indicates whether rotational values are in degrees (yes) or radians (no).

endheader
time	pelvis_tilt	pelvis_list	pelvis_rotation	pelvis_tx	pelvis_ty	pelvis_tz	hip_flexion_r	hip_adduction_r	hip_rotation_r	knee_angle_r	knee_angle_r_beta	ankle_angle_r	subtalar_angle_r	mtp_angle_r	hip_flexion_l	hip_adduction_l	hip_rotation_l	knee_angle_l	knee_angle_l_beta	ankle_angle_l	subtalar_angle_l	mtp_angle_l	lumbar_extension	lumbar_bending	lumbar_rotation	sh_tx_r	sh_ty_r	sh_tz_r	sh_plane_elev_r	sh_elev_r	sh_axial_rot_r	elbow_flex_r	pro_sup_r	sh_tx_l	sh_ty_l	sh_tz_l	sh_plane_elev_l	sh_elev_l	sh_axial_rot_l	elbow_flex_l	pro_sup_l
      8.20000000	     -4.97471094	      0.01390653	     -0.46018552	      0.25307405	      0.96553379	     -0.03353956	      4.23965636	     -7.49784920	    -12.33381790	      2.60809783	      0.04551989	     -0.43979974	     -6.64355836	     -7.49999987	      4.85690106	     -5.49462690	     -8.12114931	      2.50450918	      0.04371193	      5.92776844	     -0.16832478	     -7.49999987	      4.05300523	      1.93867210	    -10.77674313	     -0.00827999	     -0.01329645	     -0.00673664	     -6.94171500	      2.75355332	      1.23879398	     29.40604388	    112.80727863	     -0.01996232	      0.01986175	     -0.00413861	     73.41582022	     77.80046855	      4.92606992	      8.04003224	      2.29714857
      8.21666670	     -4.90129500	     -0.02583855	     -0.57904016	      0.25305824	      0.96559960	     -0.03385696	      4.17592535	     -7.34320647	    -12.20850552	      2.60132372	      0.04540166	     -0.50610990	     -6.82994262	     -7.49999987	      4.73086873	     -5.66589164	     -8.29045565	      2.49663283	      0.04357446	      5.76733195	      0.02595821	     -7.49999987	      3.91889487	      1.87552384	    -11.14912285	     -0.00771559	     -0.01390747	     -0.00675196	     -6.36237740	      2.66020317	      0.93478099	     29.58238470	    112.91149462	     -0.02177687	      0.01867281	     -0.00415458	     72.64564753	     77.31452243	      3.75946758	      8.44228395	      2.30737270
      8.23333330	     -4.83930797	     -0.08342533	     -0.66202743	      0.25303210	      0.96559989	     -0.03387546	      4.02975961	     -7.17829327	    -12.28340331	      2.43158273	      0.04243912	     -0.41843780	     -6.65158465	     -7.49999987	      4.65798726	     -5.81764017	     -8.47690623	      2.55908757	      0.04466450	      5.67036695	      0.27594924	     -7.49999987	      3.87707902	      1.77114216	    -10.58485606	     -0.00874657	     -0.01449939	     -0.00673004	     -6.73232653	      2.63396262	      0.88445076	     29.38809594	    112.96183727	     -0.02064672	      0.01769841	     -0.00413706	     72.94448293	     76.11281153	      4.16460882	      8.27418325	      2.30757674
      8.25000000	     -4.97396660	     -0.14302604	     -0.78153933	      0.25254793	      0.96512379	     -0.03435840	      4.44361700	     -7.13298538	    -12.29465073	      2.89554502	      0.05053679	     -0.24492638	     -6.67710173	     -7.49999987	      4.99373942	     -5.95742471	     -8.58337815	      2.99572027	      0.05228518	      5.81474067	      0.27354460	     -7.49999987	      4.17973662	      2.02971794	    -10.41847775	     -0.00748332	     -0.01194241	     -0.00614362	     -4.74816916	      3.12379964	      1.50711179	     28.88730884	    107.15483446	     -0.01719902	      0.01637819	     -0.00461209	     72.47069818	     74.60894312	      2.33835637	     10.26015586	      5.39590016
      8.26666670	     -4.89879098	     -0.04615116	     -0.84974241	      0.24866418	      0.96529166	     -0.03830231	      4.22124784	     -7.21709299	    -12.31581687	      2.46106657	      0.04295371	     -0.56515651	     -6.85908405	     -7.49999987	      4.67976296	     -5.79084465	     -8.71838022	      2.44771483	      0.04272068	      5.58341684	      0.53607569	     -7.49999987	      3.95244972	      1.65785633	    -10.32104508	     -0.00683719	     -0.01528751	     -0.00666791	     -5.54995925	      2.86067667	      0.61233152	     29.06885877	    111.92764640	     -0.01705890	      0.01437007	     -0.00403557	     73.52735506	     73.85824543	      3.12735273	      8.85019945	      2.18249996
      8.28333330	     -4.78204929	     -0.00959164	     -0.91517441	      0.25313441	      0.96257906	     -0.03414740	      4.13508727	     -7.22794531	    -12.18697761	      2.48103347	      0.04330220	     -0.59071030	     -7.08702307	     -7.49999987	      4.50052108	     -5.76617471	     -8.79696339	      2.38041074	      0.04154600	      5.52136650	      0.50225644	     -7.49999987	      3.84114214	      1.55685701	    -10.04246676	     -0.00576472	     -0.01553935	     -0.00653218	     -5.30725406	      3.03553092	      0.17058058	     28.49170553	    112.25014828	     -0.01599805	      0.01263290	     -0.00397740	     73.68460343	     73.12592720	      2.38032165	      9.18710687	      2.31135516
      8.30000000	     -5.00748906	     -0.06260496	     -0.99876472	      0.25266746	      0.96238866	     -0.03431218	      4.62718703	     -7.22025209	    -12.21469682	      2.96002344	      0.05166215	     -0.30910556	     -7.10160212	     -7.49999987	      4.91574542	     -5.84980490	     -8.91713738	      2.75620183	      0.04810480	      5.81755332	      0.46626773	     -7.49999987	      4.19817720	      1.87124510	     -9.78417039	     -0.00438017	     -0.01309609	     -0.00599958	     -3.52515227	      3.67875091	      0.82511934	     27.59606950	    105.84734890	     -0.01259803	      0.01251840	     -0.00454899	     73.03451452	     71.91155870	     -0.16986684	     11.39719033	      5.15531675
      8.31666670	     -4.87663776	     -0.03868289	     -1.02374985	      0.25322895	      0.96002035	     -0.03432274	      4.28829010	     -7.19525035	    -12.12493746	      2.64285502	      0.04612652	     -0.50288723	     -7.47362762	     -7.49999987	      4.54628733	     -5.81948025	     -9.03999731	      2.37166683	      0.04139339	      5.77526736	      0.60764627	     -7.49999987	      4.02335774	      1.68795488	     -9.41137504	     -0.00404538	     -0.01609270	     -0.00642945	     -4.95543591	      3.50451586	     -0.15034098	     27.31033999	    112.53797930	     -0.01448940	      0.01202269	     -0.00393420	     73.23070137	     70.50418704	      2.24340744	      9.03827954	      2.36523413
      8.33333330	     -5.07930862	      0.02842955	     -1.10804904	      0.24893752	      0.96022956	     -0.03853014	      4.69266568	     -7.35863829	    -12.07419372	      2.88744832	      0.05039548	     -0.51218274	     -7.71523803	     -7.49999987	      4.85195041	     -5.71768276	     -9.14619345	      2.46369833	      0.04299965	      5.81269155	      0.55534242	     -7.49999987	      4.32216396	      1.81750715	     -8.73863993	     -0.00301460	     -0.01624042	     -0.00628548	     -4.94534758	      4.05361160	      0.00353510	     27.07722609	    112.52682301	     -0.01406582	      0.01171556	     -0.00396211	     73.40773719	     69.21294097	      2.20807454	      9.32817313	      2.35112234
